Coordinates
version=1
nRows=13
nColumns=63
inDegrees=yes

Units are S.I. units (second, meters, Newtons, ...)
If the header above contains a line with 'inDegrees', this indicates whether rotational values are in degrees (yes) or radians (no).

endheader
time	pelvis_tilt	pelvis_list	pelvis_rotation	pelvis_tx	pelvis_ty	pelvis_tz	hip_flexion_r	hip_adduction_r	hip_rotation_r	knee_angle_r	knee_angle_r_beta	ankle_angle_r	subtalar_angle_r	mtp_angle_r	hip_flexion_l	hip_adduction_l	hip_rotation_l	knee_angle_l	knee_angle_l_beta	ankle_angle_l	subtalar_angle_l	mtp_angle_l	L5_S1_Flex_Ext	L5_S1_Lat_Bending	L5_S1_axial_rotation	L4_L5_Flex_Ext	L4_L5_Lat_Bending	L4_L5_axial_rotation	L3_L4_Flex_Ext	L3_L4_Lat_Bending	L3_L4_axial_rotation	L2_L3_Flex_Ext	L2_L3_Lat_Bending	L2_L3_axial_rotation	L1_L2_Flex_Ext	L1_L2_Lat_Bending	L1_L2_axial_rotation	L1_T12_Flex_Ext	L1_T12_Lat_Bending	L1_T12_axial_rotation	Abs_r3	Abs_r2	Abs_r1	Abs_t1	Abs_t2	neck_flexion	neck_bending	neck_rotation	arm_flex_r	arm_add_r	arm_rot_r	elbow_flex_r	pro_sup_r	wrist_flex_r	wrist_dev_r	arm_flex_l	arm_add_l	arm_rot_l	elbow_flex_l	pro_sup_l	wrist_flex_l	wrist_dev_l
1.620690	7.396183	0.954543	95.589626	0.127243	0.749554	0.884384	6.923290	4.054856	-4.892765	8.985268	0.156823	29.722332	10.260269	0.000000	7.510533	-3.254583	3.273418	12.173019	0.212459	29.053773	-0.621243	0.000000	0.332836	0.839565	-1.209848	0.618109	1.116622	-1.285463	0.546816	2.041319	-1.285463	0.380398	2.041319	-1.058617	0.309071	1.712041	-0.983001	0.190182	1.300486	-0.907386	2.377411	9.497328	-6.728810	0.000000	0.000000	20.921544	3.499728	18.473341	17.989084	-13.929127	23.443514	85.924158	88.092714	-7.415856	7.457509	1.505014	-17.899503	15.835006	101.673519	80.204826	-0.271225	8.538526
1.637931	7.380215	1.000628	95.523877	0.127250	0.749334	0.884344	6.836638	4.014704	-5.138035	8.989249	0.156892	29.872450	10.833317	0.000000	7.424852	-3.235600	3.168537	12.246145	0.213736	29.088187	-0.595298	0.000000	0.343583	0.846111	-1.178993	0.638068	1.125328	-1.252680	0.564473	2.057235	-1.252680	0.392681	2.057235	-1.031619	0.319051	1.725390	-0.957932	0.196323	1.310626	-0.884245	2.454180	9.571380	-6.557206	0.000000	0.000000	20.816614	3.109658	18.068908	18.566744	-13.964185	25.540997	85.918721	88.306398	-5.542843	5.736977	2.524728	-18.261407	18.049675	100.885697	79.395072	-0.249653	7.664294
1.655172	7.359460	1.071249	95.461371	0.127293	0.749229	0.884358	6.742308	3.971935	-5.430059	9.014558	0.157334	30.020465	11.442039	0.000000	7.314995	-3.223002	2.976961	12.319150	0.215010	29.144573	-0.461757	0.000000	0.351202	0.847444	-1.124135	0.652217	1.127101	-1.194393	0.576990	2.060476	-1.194393	0.401389	2.060476	-0.983618	0.326126	1.728108	-0.913359	0.200677	1.312691	-0.843101	2.508600	9.586459	-6.252100	0.000000	0.000000	20.627543	2.793265	17.389603	19.035471	-14.055233	27.658630	86.013615	87.372622	-3.788422	4.690899	3.779233	-18.574168	20.342825	99.959487	78.335789	-0.151755	7.107092
1.672414	7.328179	1.163674	95.391881	0.127425	0.749238	0.884512	6.653429	3.924719	-5.740436	9.070408	0.158308	30.150824	12.046199	0.000000	7.195521	-3.217304	2.654072	12.404729	0.216503	29.216406	-0.184672	0.000000	0.354725	0.842545	-1.045565	0.658760	1.120585	-1.110913	0.582778	2.048565	-1.110913	0.405415	2.048565	-0.914870	0.329398	1.718119	-0.849522	0.202690	1.305103	-0.784174	2.533765	9.531043	-5.815121	0.000000	0.000000	20.339492	2.531969	16.444595	19.406598	-14.231959	29.849560	86.124730	85.078404	-2.204375	4.283973	5.309587	-18.896518	22.937394	98.898359	76.608967	-0.207461	6.824767
1.689655	7.276715	1.273184	95.319182	0.127697	0.749359	0.884832	6.579586	3.867118	-6.044558	9.158689	0.159849	30.274550	12.610549	0.000000	7.069561	-3.209732	2.228855	12.490833	0.218006	29.296840	0.211237	0.000000	0.354752	0.829498	-0.943501	0.658810	1.103232	-1.002470	0.582822	2.016841	-1.002470	0.405446	2.016841	-0.825563	0.329423	1.691512	-0.766595	0.202705	1.284892	-0.707626	2.533959	9.383446	-5.247470	0.000000	0.000000	19.948548	2.294074	15.191097	19.639805	-14.439920	32.017798	86.208082	82.707769	-0.914792	4.745969	7.071324	-19.197573	25.829386	97.574120	74.349192	-0.258326	6.557368
1.706897	7.222208	1.396110	95.252523	0.128071	0.749563	0.885365	6.534816	3.812682	-6.354470	9.282865	0.162017	30.394193	13.130873	0.000000	6.957276	-3.214533	1.724800	12.593215	0.219793	29.394874	0.708555	0.000000	0.351830	0.811288	-0.825195	0.653383	1.079013	-0.876770	0.578021	1.972565	-0.876770	0.402106	1.972565	-0.722046	0.326709	1.654378	-0.670471	0.201035	1.256685	-0.618896	2.513084	9.177450	-4.589487	0.000000	0.000000	19.433012	2.071486	13.712489	19.780758	-14.715269	34.237431	86.140314	79.912602	0.129257	5.943510	9.000892	-19.425014	28.998926	95.938115	71.779646	-0.325451	6.308042
1.724138	7.165181	1.526639	95.195281	0.128568	0.749826	0.886113	6.520523	3.767330	-6.617104	9.425339	0.164503	30.502129	13.541252	0.000000	6.864683	-3.235444	1.138712	12.706093	0.221763	29.512667	1.322041	0.000000	0.346805	0.787733	-0.699613	0.644051	1.047685	-0.743339	0.569766	1.915294	-0.743339	0.396363	1.915294	-0.612161	0.322043	1.606345	-0.568435	0.198164	1.220198	-0.524710	2.477193	8.910992	-3.891036	0.000000	0.000000	18.817794	1.839438	12.000434	19.874826	-15.037871	36.576564	85.773435	76.842479	0.945421	7.555350	10.987164	-19.545330	32.372829	93.990261	68.926571	-0.463879	6.029151
1.741379	7.120632	1.659568	95.163860	0.129143	0.750114	0.887052	6.531366	3.748993	-6.795853	9.563447	0.166914	30.583982	13.767335	0.000000	6.805156	-3.284432	0.492805	12.836592	0.224041	29.657605	2.038433	0.000000	0.340072	0.762282	-0.580556	0.631548	1.013835	-0.616841	0.558704	1.853412	-0.616841	0.388668	1.853412	-0.507986	0.315791	1.554445	-0.471702	0.194317	1.180774	-0.435417	2.429101	8.623083	-3.228877	0.000000	0.000000	18.143657	1.591386	10.208956	19.976897	-15.376373	39.077209	84.997366	73.769964	1.563747	9.347234	12.900603	-19.529708	35.805458	91.755889	65.956837	-0.637212	5.782914
1.758621	7.091056	1.785513	95.138245	0.129786	0.750388	0.888125	6.577363	3.758176	-6.877370	9.709351	0.169460	30.642439	13.816183	0.000000	6.781288	-3.363446	-0.226622	12.984539	0.226623	29.839018	2.845358	0.000000	0.332810	0.735893	-0.467666	0.618061	0.978738	-0.496895	0.546773	1.789250	-0.496895	0.380368	1.789250	-0.409208	0.309047	1.500633	-0.379979	0.190168	1.139898	-0.350750	2.377228	8.324568	-2.601019	0.000000	0.000000	17.453112	1.296303	8.300953	20.079978	-15.701508	41.637642	83.818671	70.828631	1.957330	11.384962	14.707994	-19.372228	39.326159	89.289482	62.813607	-0.932105	5.741716
1.775862	7.093244	1.885273	95.139056	0.130409	0.750605	0.889263	6.657731	3.810438	-6.832576	9.830731	0.171579	30.646244	13.626619	0.000000	6.813269	-3.480454	-0.981092	13.148623	0.229487	30.051525	3.724154	0.000000	0.326122	0.713460	-0.378992	0.605642	0.948902	-0.402679	0.535786	1.734706	-0.402679	0.372725	1.734706	-0.331618	0.302837	1.454887	-0.307931	0.186346	1.105149	-0.284244	2.329458	8.070801	-2.107841	0.000000	0.000000	16.848180	0.994154	6.559588	20.213715	-15.967964	44.241755	82.229912	68.155512	2.160026	13.459354	16.329685	-19.088758	42.849826	86.643207	59.540803	-1.298593	5.958058
1.793103	7.148066	1.956352	95.174777	0.130902	0.750741	0.890363	6.764885	3.914712	-6.760689	9.926682	0.173253	30.606665	13.322722	0.000000	6.895478	-3.636876	-1.642485	13.322022	0.232513	30.285417	4.526208	0.000000	0.319122	0.701169	-0.331661	0.592641	0.932555	-0.352390	0.524285	1.704822	-0.352390	0.364724	1.704822	-0.290203	0.296337	1.429823	-0.269475	0.182346	1.086111	-0.248746	2.279456	7.931762	-1.844599	0.000000	0.000000	16.359538	0.729137	5.297775	20.431807	-16.145219	46.942187	80.269807	65.538390	2.173941	15.352482	17.697184	-18.682181	46.241895	83.872485	56.640987	-1.591278	6.566839
1.810345	7.235336	1.970542	95.213238	0.131332	0.750776	0.891394	6.921848	4.057686	-6.559111	10.000845	0.174548	30.508257	12.822643	0.000000	7.037010	-3.814359	-2.241331	13.490492	0.235454	30.508491	5.251844	0.000000	0.313364	0.696407	-0.321972	0.581948	0.926221	-0.342095	0.514825	1.693243	-0.342095	0.358143	1.693243	-0.281726	0.290990	1.420112	-0.261602	0.179056	1.078734	-0.241479	2.238326	7.877890	-1.790712	0.000000	0.000000	16.084102	0.517623	4.495757	20.692904	-16.186041	49.639647	78.031703	62.424451	1.916327	17.095458	18.801128	-18.225804	49.480018	81.068870	53.456347	-1.953017	7.766766
1.827586	7.376782	1.937138	95.273462	0.131596	0.750715	0.892362	7.118584	4.241125	-6.415957	10.061148	0.175600	30.381508	12.357195	0.000000	7.237300	-4.021770	-2.689230	13.664770	0.238495	30.713571	5.820812	0.000000	0.307282	0.703573	-0.348582	0.570654	0.935752	-0.370368	0.504834	1.710668	-0.370368	0.351193	1.710668	-0.305009	0.285342	1.434727	-0.283223	0.175581	1.089835	-0.261436	2.194886	7.958961	-1.938706	0.000000	0.000000	16.025750	0.346661	4.238355	21.000801	-16.117818	52.288148	75.599964	59.119105	1.581813	18.515640	19.739397	-17.713600	52.667378	78.164673	50.726508	-2.226260	9.261505
